<svg width="65" height="169" fill="none" xmlns="http://www.w3.org/2000/svg"><path d="M59.223 168.432a1.5 1.5 0 0 0 1.821-1.088l3.296-13.092a1.5 1.5 0 0 0-2.91-.732l-2.929 11.637-11.637-2.929a1.5 1.5 0 1 0-.732 2.909l13.091 3.295ZM46.943 7.938a1.5 1.5 0 0 0-2.396-1.805l2.397 1.805Zm-7.225 5.126a1.5 1.5 0 0 0 2.522 1.623l-2.523-1.623Zm-5.325 16.069a1.5 1.5 0 1 0-2.735-1.233l2.735 1.233Zm-8.514 14.63a1.5 1.5 0 0 0 2.887.816l-2.887-.815Zm-.397 16.924a1.5 1.5 0 1 0-2.976-.38l2.976.38Zm-3.876 16.478a1.5 1.5 0 1 0 3-.061l-3 .061Zm4.55 16.305a1.5 1.5 0 1 0-2.957.503l2.958-.503Zm1.1 16.892a1.5 1.5 0 0 0 2.85-.935l-2.85.935Zm9.116 14.264a1.5 1.5 0 1 0-2.681 1.345l2.68-1.345Zm6.52 17.343a1.5 1.5 0 0 0 2.575-1.539l-2.575 1.539Zm12.848 15.646a1.5 1.5 0 1 0-2.575 1.54l2.575-1.54ZM44.547 6.133a114.587 114.587 0 0 0-4.83 6.931l2.523 1.623a111.616 111.616 0 0 1 4.704-6.749l-2.397-1.805ZM31.657 27.9a113.924 113.924 0 0 0-5.778 15.864l2.887.815a110.93 110.93 0 0 1 5.627-15.446L31.658 27.9Zm-9.15 32.406a114.356 114.356 0 0 0-.9 16.86l2.998-.062c-.112-5.486.18-10.974.877-16.417l-2.976-.38Zm.692 33.667a113.945 113.945 0 0 0 4.057 16.389l2.85-.935a110.939 110.939 0 0 1-3.95-15.957l-2.957.503Zm10.491 31.998a114.56 114.56 0 0 0 4.065 7.406l2.575-1.54a111.435 111.435 0 0 1-3.958-7.211l-2.681 1.345Zm4.065 7.406 5.137 8.592 2.575-1.539-5.137-8.593-2.575 1.54Zm15.41 25.778 5.137 8.592 2.575-1.539-5.137-8.593-2.575 1.54Z" fill="#AEA1C9"/><circle cx="48" cy="4" r="4" fill="#AEA1C9"/></svg>