<svg width="85" height="85" fill="none" xmlns="http://www.w3.org/2000/svg"><path d="m78.045 35.21 1.777-14.683H51.154L52.93 35.21h25.114Zm-23.8 13.908L56.41 67.2c.232 1.623 1.545 2.782 3.168 2.782h11.668c1.623 0 3.014-1.236 3.168-2.782l2.164-18.082H54.245Z" fill="#FF7678"/><path d="M37.478 83.118c-14.836 0-27.355-7.186-33.15-14.218C1.392 65.345.155 61.714.696 58.777c.928-4.559 4.868-5.872 8.037-6.954 2.163-.696 4.172-1.391 5.022-2.86 1.237-2.086 1.082-3.708.85-5.718-.232-2.009-.463-4.25.773-7.031 1.777-4.173 6.336-7.032 13.136-8.423.619-.155 1.237.309 1.391.927.155.618-.309 1.237-.927 1.391-4.173.85-9.582 2.782-11.436 7.11-1.005 2.24-.773 4.017-.619 5.872.232 2.164.464 4.404-1.159 7.186-1.313 2.164-3.863 3.014-6.259 3.864-3.09 1.082-5.795 1.932-6.49 5.255-.464 2.318.618 5.177 3.168 8.268 5.486 6.645 17.309 13.368 31.372 13.368.618 0 1.16.54 1.16 1.159 0 .618-.619.927-1.237.927Z" fill="#1C2947"/><path d="M27.819 46.8c-3.4 0-6.182-2.395-6.182-5.409s2.782-5.41 6.182-5.41c3.4 0 6.182 2.396 6.182 5.41 0 3.014-2.782 5.41-6.182 5.41Zm0-8.5c-2.164 0-3.864 1.391-3.864 3.091 0 1.7 1.7 3.09 3.864 3.09 2.163 0 3.863-1.39 3.863-3.09s-1.7-3.09-3.863-3.09Zm42.036 44.818h-9.118c-1.932 0-3.555-1.622-3.555-3.554v-4.56c0-.617.541-1.158 1.16-1.158H72.25c.618 0 1.16.54 1.16 1.159v4.559c0 1.932-1.623 3.554-3.555 3.554ZM59.5 76.164v3.4a1.22 1.22 0 0 0 1.237 1.236h9.118a1.22 1.22 0 0 0 1.236-1.236v-3.4h-11.59Zm11.748-5.409H59.734c-2.24 0-4.095-1.623-4.327-3.864l-5.64-47.059c-.078-.618.386-1.236 1.004-1.314.618-.077 1.236.387 1.313 1.005l5.641 47.059c.155 1.005 1.005 1.777 2.01 1.777h11.513c1.005 0 1.932-.772 2.01-1.777l5.64-47.059c.077-.618.618-1.082 1.314-1.005.618.078 1.081.619 1.004 1.314l-5.64 47.06c-.232 2.24-2.164 3.863-4.328 3.863Z" fill="#1C2947"/><path d="M83.84 83.118H1.16c-.62 0-1.16-.54-1.16-1.159 0-.618.54-1.159 1.16-1.159h82.68c.62 0 1.16.541 1.16 1.16 0 .618-.54 1.159-1.16 1.159Zm-3.091-62.591h-30.91c-.617 0-1.158-.54-1.158-1.159v-6.954c0-.619.54-1.16 1.159-1.16h30.909c.618 0 1.159.541 1.159 1.16v6.954c0 .618-.541 1.16-1.16 1.16Zm-29.75-2.318h28.59v-4.636H51v4.636Zm18.158 57.182c-.618 0-1.159-.54-1.159-1.159v-3.864c0-.618.541-1.159 1.16-1.159.618 0 1.159.541 1.159 1.16v3.863c0 .618-.541 1.159-1.16 1.159Zm-7.726 0c-.618 0-1.159-.54-1.159-1.159v-3.864c0-.618.541-1.159 1.16-1.159.617 0 1.158.541 1.158 1.16v3.863c0 .618-.54 1.159-1.159 1.159ZM51.074 55.764c-.386 0-.772-.155-1.004-.541L36.006 33.509a1.264 1.264 0 0 1-.154-.927c.077-.31.231-.541.54-.696l7.419-4.404c.309-.155.618-.232.927-.155.31.077.54.31.695.541l4.869 8.964c.309.54.077 1.236-.464 1.545-.54.31-1.236.078-1.546-.463l-4.327-7.96-5.332 3.169 13.369 20.709c.309.54.231 1.236-.31 1.623-.231.231-.463.309-.618.309Z" fill="#1C2947"/><path d="M37.017 34.05h-.31c-.309-.077-.54-.231-.695-.54l-5.254-8.887c-.31-.54-.155-1.236.386-1.623l7.418-4.404c.232-.155.618-.232.85-.155.31.078.541.232.696.541l5.254 8.887c.31.54.155 1.236-.386 1.622l-7.418 4.405c-.155.077-.31.154-.541.154Zm-3.71-9.581 4.096 6.877 5.41-3.246-4.096-6.877-5.41 3.245Z" fill="#1C2947"/><path d="M32.454 24.777H32.3c-7.032-.772-7.96-6.027-8.732-10.663-.155-.773-.31-1.623-.464-2.396-1.082-5.1-2.782-7.881-2.782-7.959a1.17 1.17 0 0 1 .078-1.313c.309-.387.85-.541 1.236-.387.309.077 7.573 2.55 10.432 3.941 2.704 1.237 11.05 6.105 7.263 14.527-.232.619-.927.85-1.545.619-.618-.232-.85-.928-.618-1.546 2.859-6.336-3.4-10.123-6.182-11.513-1.7-.773-5.177-2.087-7.573-2.937.618 1.468 1.314 3.477 1.855 6.027.154.85.309 1.7.463 2.473.773 4.56 1.468 8.114 6.723 8.732.618.077 1.082.618 1.005 1.314.077.618-.387 1.081-1.005 1.081ZM75.341 49.89h-20.09c-.619 0-1.16-.54-1.16-1.158 0-.618.541-1.16 1.16-1.16h20.09c.619 0 1.16.542 1.16 1.16 0 .618-.541 1.159-1.16 1.159Zm-.774-13.135h-20.09c-.619 0-1.16-.541-1.16-1.16 0-.618.541-1.158 1.16-1.158h20.09c.618 0 1.16.54 1.16 1.159 0 .618-.542 1.159-1.16 1.159Z" fill="#1C2947"/><path d="M42.114 76.163a7.34 7.34 0 1 0 0-14.681 7.34 7.34 0 0 0 0 14.681Z" fill="#FF7678"/><path d="M21.25 70.755a7.34 7.34 0 1 0 0-14.682 7.34 7.34 0 0 0 0 14.682Z" fill="#8BD9F2"/></svg>