<svg width="85" height="85" fill="none" xmlns="http://www.w3.org/2000/svg"><path d="M36.873 40.047v-.713c-3.918-2.85-7.124-7.908-7.124-13.108v-5.628s8.834-3.206 13.394-9.69c4.56 5.843 13.607 9.69 13.607 9.69l-.214 5.628c0 5.485-4.844 11.755-8.976 14.533l.712 1.425c0 1.282 2.422 4.346 3.562 4.987l10.971 4.274h2.565c1.567-6.055-1.781-10.187-4.987-11.398 1.781-1.781 2.565-4.774 2.137-7.125-.356-1.71-1.71-4.702-2.137-6.411-1.14-4.489 1.354-5.343.712-10.687-.64-5.2-6.055-17.667-20.873-14.248-5.13.356-9.12 1.924-11.541 4.56-3.135 3.348-4.417 7.694-4.774 10.615-.64 5.271 1.568 7.337.428 11.754-.428 1.71-1.354 3.206-1.71 4.916-.427 2.351.356 4.773 2.137 6.554-3.063 1.14-7.622 6.91-6.055 11.47h3.134l11.898-6.198c1.923-.997 3.134-2.992 3.134-5.2Z" fill="#FF7678"/><path d="M15.5 67.404V51.089l24.437 3.064 6.91-.356v29.636l-6.91.356L15.5 80.726v-5.7h3.847c2.28 0 3.063-6.055.783-6.839l-4.63-.783Z" fill="#8BD9F2"/><path d="M68.93 67.404V51.089l-24.222 3.064v29.636l24.223-3.063v-5.7h-3.776c-2.28 0-2.992-6.055-.784-6.839l4.56-.783Z" fill="#8BD9F2"/><path d="M42.572 37.055c-1.14 0-2.209-.285-2.992-.926-.428-.357-.5-1.069-.143-1.496.356-.428 1.069-.5 1.496-.143.784.641 2.565.57 3.135 0 .427-.356 1.14-.356 1.496.071.356.428.356 1.14-.071 1.496-.713.713-1.782.998-2.921.998Zm0-5.485h-.357c-.57 0-1.068-.5-1.068-1.07 0-.57.498-1.068 1.068-1.068h.357a.714.714 0 0 0 .712-.712v-4.132c0-1.853 1.211-3.705 3.277-3.705h3.49c.57 0 1.07.499 1.07 1.069s-.5 1.068-1.07 1.068h-3.49c-.855 0-1.14 1.069-1.14 1.568v4.132a2.858 2.858 0 0 1-2.85 2.85Zm-5.699-4.204a1.354 1.354 0 1 0 0-2.707 1.354 1.354 0 0 0 0 2.707Z" fill="#1C2947"/><path d="M48.486 27.366a1.354 1.354 0 1 0 0-2.707 1.354 1.354 0 0 0 0 2.707Zm-9.122-4.346h-4.275c-.57 0-1.069-.499-1.069-1.069s.5-1.068 1.07-1.068h4.274c.57 0 1.068.498 1.068 1.068 0 .57-.498 1.069-1.068 1.069ZM26.329 50.163c-.428 0-.784-.213-.998-.64-.213-.57 0-1.14.57-1.426a36.673 36.673 0 0 1 3.349-1.353c3.99-1.425 6.625-2.707 6.625-6.198 0-.57.499-1.069 1.069-1.069s1.069.499 1.069 1.069c0 5.272-4.417 6.91-7.98 8.193-.926.356-2.066.783-3.205 1.282-.214.071-.357.142-.5.142Zm32.128-.143c-.142 0-.285 0-.427-.07-.998-.428-1.995-.784-2.85-1.14-3.562-1.283-7.979-2.921-7.979-8.193 0-.57.499-1.069 1.069-1.069s1.068.499 1.068 1.069c0 3.49 2.636 4.702 6.626 6.198.855.285 1.852.712 2.92 1.14.57.213.784.855.57 1.424-.213.357-.57.642-.997.642Z" fill="#1C2947"/><path d="M42.57 42.754c-6.269 0-14.247-7.837-14.247-16.67v-5.628c0-.428.285-.855.712-.998.071 0 8.478-3.206 12.68-9.261.215-.285.5-.428.856-.428s.641.143.855.428c4.274 5.557 12.894 9.332 12.966 9.332.427.143.64.57.64.998l-.213 5.556c.071 8.906-7.908 16.671-14.248 16.671ZM30.46 21.239v4.845c0 7.48 6.839 14.533 12.11 14.533 5.273 0 12.112-7.053 12.112-14.533v-.072l.213-4.915c-2.066-.998-8.264-4.132-12.253-8.62-3.99 5.058-10.116 7.907-12.182 8.762Z" fill="#1C2947"/><path d="M65.796 48.24c-.57 0-.997-.428-1.068-.998-.214-2.778-2.137-5.414-4.702-6.412a1.027 1.027 0 0 1-.641-.783c-.071-.356 0-.713.285-.998 1.496-1.496 2.137-3.704 1.78-5.699-.142-.855-.498-1.639-.783-2.493-.285-.784-.641-1.568-.855-2.423-.64-2.564-.285-4.488.072-6.269.284-1.638.64-3.348.356-5.7-.357-2.706-2.636-8.334-7.48-11.683-3.705-2.564-7.98-3.277-12.824-2.137h-.143c-4.63.285-8.192 1.781-10.33 4.203-3.277 3.634-4.132 8.193-4.345 10.045-.285 2.351 0 4.061.356 5.7.356 1.852.712 3.704.071 6.269-.214.855-.499 1.638-.784 2.422-.356.855-.64 1.639-.783 2.494a6.42 6.42 0 0 0 1.78 5.628c.286.285.357.64.286.997a1.027 1.027 0 0 1-.641.784c-2.494.997-4.275 3.348-4.631 5.984-.071.57-.57.997-1.211.926-.57-.071-.997-.641-.926-1.211.356-2.992 2.137-5.628 4.63-7.124-1.282-1.852-1.852-4.203-1.424-6.412.213-.997.57-1.924.926-2.85.285-.712.57-1.424.712-2.137.499-2.066.214-3.633-.071-5.343s-.641-3.633-.356-6.34c.213-1.995 1.21-7.053 4.844-11.185 2.565-2.85 6.626-4.56 11.755-4.916C45.065-.703 49.91.152 54.113 3.072c5.414 3.776 7.979 9.974 8.335 13.18.356 2.707 0 4.63-.356 6.34-.356 1.782-.641 3.278-.071 5.415.142.712.427 1.425.712 2.137.356.926.713 1.852.926 2.921.428 2.209-.142 4.56-1.425 6.483 2.636 1.567 4.489 4.488 4.774 7.623.07.57-.357 1.069-.998 1.14-.142-.143-.214-.072-.214-.072Zm-26.43 36.404h-.143l-24.222-2.992c-.57-.072-.926-.5-.926-1.069v-5.2c0-.57.499-1.07 1.069-1.07s1.068.5 1.068 1.07v4.203l22.085 2.778V55.007L16.212 52.23v12.467c0 .57-.498 1.069-1.068 1.069-.57 0-1.069-.499-1.069-1.069V51.018c0-.285.142-.57.356-.784.214-.214.57-.285.855-.285l24.222 2.992c.57.072.926.5.926 1.069v29.565c0 .285-.142.57-.356.784-.214.214-.427.285-.712.285Z" fill="#1C2947"/><path d="M18.208 76.095h-.214l-5.343-.356a4.396 4.396 0 0 1-3.847-3.42l-.641-3.063c-.285-1.14-.214-2.351.356-3.491a4.874 4.874 0 0 1 3.49-2.636l2.708-.428c.57-.07 1.14.285 1.211.855.071.57-.285 1.14-.855 1.211l-2.707.428c-.855.142-1.567.641-1.923 1.425-.357.64-.357 1.353-.214 1.994v.072l.641 3.063c.214.926.926 1.639 1.924 1.71l5.271.356c.713.071 1.354-.427 1.496-1.14l.5-2.493c.07-.428 0-.855-.286-1.14-.285-.356-.641-.499-1.069-.499H16.57c-.57 0-1.068-.499-1.068-1.068 0-.57.498-1.069 1.068-1.069h2.137c1.07 0 2.067.499 2.779 1.282.641.855.926 1.924.712 2.921l-.498 2.494c-.357 1.78-1.853 2.992-3.491 2.992Zm26.857 8.549c-.285 0-.498-.072-.712-.285-.214-.214-.356-.499-.356-.784V54.081c0-.57.427-.997.926-1.068l24.222-2.992c.285-.072.641.07.855.284.213.214.356.5.356.784v13.678c0 .57-.499 1.069-1.069 1.069s-1.068-.499-1.068-1.069V52.23l-22.085 2.778v27.357l22.085-2.778v-4.204c0-.57.498-1.068 1.068-1.068.57 0 1.069.499 1.069 1.068v5.201c0 .57-.428.997-.926 1.069l-24.222 2.992h-.143Z" fill="#1C2947"/><path d="M66.509 76.095c-1.639 0-3.135-1.211-3.49-2.85l-.5-2.493a3.522 3.522 0 0 1 .713-2.921c.641-.855 1.71-1.283 2.778-1.283h1.852c.57 0 1.07.499 1.07 1.069s-.5 1.069-1.07 1.069H66.01c-.427 0-.855.213-1.068.498a1.393 1.393 0 0 0-.285 1.14l.498 2.494c.143.712.784 1.14 1.496 1.14l5.344-.357a2.044 2.044 0 0 0 1.852-1.71l.64-3.063v-.071a2.282 2.282 0 0 0-.213-1.924c-.427-.783-1.14-1.282-1.923-1.424l-2.707-.428c-.57-.071-.998-.641-.855-1.211.07-.57.64-.997 1.21-.855l2.708.428c1.496.213 2.778 1.21 3.49 2.564.57 1.14.713 2.351.357 3.491l-.641 3.063c-.356 1.853-1.924 3.206-3.776 3.42l-5.343.356c-.143-.142-.214-.142-.285-.142ZM45.063 55.079h-5.7c-.57 0-1.068-.499-1.068-1.069s.499-1.069 1.069-1.069h5.699c.57 0 1.069.5 1.069 1.069 0 .57-.5 1.069-1.07 1.069Zm0 29.921h-5.7c-.57 0-1.068-.499-1.068-1.069s.499-1.068 1.069-1.068h5.699c.57 0 1.069.499 1.069 1.068 0 .57-.5 1.069-1.07 1.069Z" fill="#1C2947"/></svg>