<svg width="85" height="85" fill="none" xmlns="http://www.w3.org/2000/svg"><path d="M40.06 81.562a1.115 1.115 0 1 0 0-2.23 1.115 1.115 0 0 0 0 2.23Z" fill="#263357"/><path d="M28.844 15.723c-2.439 1.951-7.803 1.812-11.287 4.18-4.598 3.136-4.738 5.992-7.246 6.41-1.672-3.762-3.135-11.495 1.742-16.372 8.151-8.152 17.348-4.18 18.184-1.533 4.738-.488 9.615 9.893 5.852 19.09-.278-1.951-1.602-6.201-4.598-9.197l-2.647-2.578Zm40.407 27.52s-2.229 4.32-7.663 5.295A14.9 14.9 0 0 1 63.33 54.6c0 .278 0 .627.07.905.069 4.39-2.091 8.779-5.714 11.635l-2.369 1.881H84.3v-7.594c0-13.725-11.495-18.184-15.049-18.184ZM10.869 29.03c-1.324 3.763-3.554 8.43-4.46 9.685 4.042 2.23 8.152 2.23 11.287.836-3.344-2.369-5.504-7.385-6.827-10.52Zm25.291 0c1.324 3.763 3.554 8.43 4.46 9.685-4.042 2.23-8.152 2.23-11.287.836 3.344-2.369 5.573-7.385 6.827-10.52Z" fill="#61C4F2"/><path d="M12.957 41.153c-3.344-.07-5.364-1.184-6.688-1.95l-.279-.14c-.278-.14-.487-.418-.487-.697-.07-.279 0-.627.209-.836a16.783 16.783 0 0 0 2.438-4.528 19.256 19.256 0 0 0 1.045-5.644v-1.254c0-.557.488-1.045 1.045-1.045.558 0 1.045.488 1.045 1.045v1.185c-.07 2.229-.418 4.32-1.114 6.34-.488 1.463-1.185 2.786-2.02 4.11 1.114.558 2.647 1.184 5.015 1.254.558 0 1.045.488 1.045 1.045-.209.697-.696 1.115-1.254 1.115Zm20.343-.279a1.072 1.072 0 0 1-1.044-1.045c0-.557.488-1.045 1.045-1.045 2.508 0 4.18-.697 5.365-1.324-.836-1.324-1.533-2.647-2.02-4.11-.698-2.02-1.116-4.11-1.116-6.34v-.21c0-.557.488-1.044 1.045-1.044a1.07 1.07 0 0 1 1.045 1.045v.209c0 1.95.349 3.832 1.046 5.643a16.782 16.782 0 0 0 2.438 4.529c.21.278.209.557.209.836a1.11 1.11 0 0 1-.557.696l-.279.14c-1.463.836-3.623 2.02-7.176 2.02Z" fill="#263357"/><path d="M23.272 41.99c-6.758 0-12.54-6.271-13.864-14.91-.07-.558.279-1.115.906-1.185.557-.07 1.114.279 1.184.906 1.115 7.594 6.131 13.168 11.774 13.168 5.644 0 10.66-5.504 11.775-13.168.07-.557.627-.975 1.184-.906.557.07.975.627.906 1.185-1.254 8.639-7.107 14.91-13.865 14.91Z" fill="#263357"/><path d="M29.609 26.452h-2.787a1.072 1.072 0 0 1-1.045-1.045c0-.557.488-1.045 1.045-1.045h2.787c.557 0 1.045.488 1.045 1.045 0 .627-.488 1.045-1.045 1.045Zm-9.754 0h-2.787a1.072 1.072 0 0 1-1.045-1.045c0-.557.488-1.045 1.046-1.045h2.786c.558 0 1.045.488 1.045 1.045 0 .627-.487 1.045-1.045 1.045Zm3.413 9.755c-1.393 0-2.717-.488-3.971-1.463-.488-.349-.558-.976-.21-1.463.35-.488.976-.558 1.464-.21 1.811 1.394 3.693 1.394 5.504 0 .488-.348 1.115-.278 1.463.21.348.487.279 1.114-.209 1.463-1.254.975-2.648 1.463-4.04 1.463ZM10.103 68.952a1.071 1.071 0 0 1-1.045-1.045v-9.754c0-.557.487-1.045 1.045-1.045.557 0 1.045.488 1.045 1.045v9.754c0 .627-.488 1.045-1.045 1.045Z" fill="#263357"/><path d="M1.045 68.952A1.072 1.072 0 0 1 0 67.907v-8.43c.836-11.147 11.147-16.86 15.397-16.86h.14c.418 0 .766.278.975.696.418 1.185 1.463 2.16 2.996 2.857.557.209.766.836.488 1.393-.21.557-.837.766-1.394.488-1.672-.767-2.996-1.951-3.762-3.275-3.205.488-12.053 5.016-12.75 14.84v8.29c0 .628-.488 1.046-1.045 1.046ZM36.02 28.473h-.139a1.036 1.036 0 0 1-.906-.906c-.278-2.02-1.672-5.922-4.32-8.57a1.01 1.01 0 0 1 0-1.462 1.01 1.01 0 0 1 1.464 0c1.881 1.88 3.065 4.11 3.901 6.13.836-4.807-.418-9.474-2.438-12.192-1.045-1.393-2.3-2.16-3.344-2.02-.488.07-.976-.279-1.115-.767-.209-.557-1.463-1.672-3.762-2.229-2.02-.488-7.316-1.115-12.68 4.25-4.18 4.18-3.205 10.73-1.881 14.282.418-.278.836-.766 1.532-1.532.906-1.185 2.23-2.718 4.599-4.39 1.393-.975 3.204-1.532 5.086-2.09 3.065-.975 6.27-1.95 7.036-4.528.14-.558.767-.906 1.324-.697.558.14.906.766.697 1.324-1.045 3.692-4.947 4.877-8.43 5.922-1.742.557-3.414 1.045-4.529 1.811-2.09 1.463-3.205 2.857-4.11 3.971-1.046 1.255-1.882 2.37-3.554 2.578-.487.07-.905-.209-1.114-.627-1.812-3.971-3.345-12.192 1.95-17.557 6.131-6.13 12.262-5.364 14.7-4.807 2.23.557 4.042 1.672 4.878 2.926 1.602.14 3.135 1.115 4.528 2.857 2.857 3.831 4.39 11.077 1.672 17.626a1.103 1.103 0 0 1-1.044.697Zm35.67 1.463h-.21c-.557-.14-.905-.627-.835-1.254.139-.766.696-1.184 1.114-1.463.627-.418.906-.697.627-1.881a1.039 1.039 0 1 1 2.02-.488c.628 2.578-.696 3.553-1.393 4.11-.139.07-.278.21-.348.28-.14.348-.557.696-.975.696Zm-24.383 0c-.487 0-.836-.279-.975-.766-.07-.07-.279-.21-.349-.279-.766-.557-2.299-1.533-1.602-4.11a1.038 1.038 0 1 1 2.02.488c-.278 1.184.07 1.393.767 1.88.488.279 1.115.697 1.254 1.533.14.557-.279 1.115-.836 1.254h-.279Z" fill="#263357"/><path d="M59.359 43.383c-6.48 0-12.123-6.062-13.377-14.353-.07-.557.279-1.114.906-1.184.557-.07 1.114.279 1.184.906 1.115 7.315 5.852 12.54 11.287 12.54 5.434 0 10.172-5.295 11.286-12.54.07-.558.627-.976 1.185-.906.557.07.975.627.906 1.184-1.255 8.291-6.898 14.352-13.377 14.352Z" fill="#263357"/><path d="M56.084 29.24h-2.787a1.072 1.072 0 0 1-1.045-1.046c0-.557.487-1.045 1.045-1.045h2.787c.557 0 1.045.488 1.045 1.045 0 .627-.488 1.045-1.045 1.045Zm9.753 0H63.05a1.072 1.072 0 0 1-1.045-1.045c0-.558.488-1.046 1.045-1.046h2.787c.557 0 1.045.488 1.045 1.046 0 .627-.488 1.044-1.045 1.044Zm-6.479 9.196c-1.324 0-2.648-.488-3.832-1.394-.488-.348-.558-.975-.21-1.463.349-.487.976-.557 1.464-.209 1.741 1.324 3.483 1.324 5.225 0 .488-.348 1.115-.278 1.463.21.348.487.279 1.114-.209 1.462-1.254.906-2.578 1.394-3.901 1.394Zm14.144 30.515a1.072 1.072 0 0 1-1.045-1.045V58.85c0-.557.488-1.045 1.045-1.045.558 0 1.045.488 1.045 1.045v9.057c0 .627-.487 1.045-1.045 1.045Z" fill="#263357"/><path d="M83.955 68.952a1.072 1.072 0 0 1-1.045-1.046V61.01c0-12.123-9.615-16.442-13.377-16.93a10.629 10.629 0 0 1-6.758 5.434 1.038 1.038 0 1 1-.488-2.02c4.25-1.115 5.644-4.807 5.644-4.807.139-.418.557-.697.975-.697C73.644 41.99 85 47.494 85 61.08v6.897c0 .558-.488.976-1.045.976ZM70.09 26.592c-.976 0-1.951-.14-2.857-.627-.906-.418-2.02-1.255-2.926-1.951-.14-.14-.349-.21-.488-.349-.07.418-.209.836-.627 1.115-.209.14-.627.348-1.254.14-2.439-.767-6.758-2.23-9.545-4.18-.418.487-.766 1.044-1.184 1.532-1.742 2.369-3.763 5.086-6.201 3.762-.975-.348-1.602-2.09-2.09-5.922-.836-6.897 1.533-11.008 7.385-12.54.14-.349.418-.697.836-1.046 1.95-1.672 6.967-2.647 10.38-1.95 1.882.348 8.152 1.95 11.497 7.733 2.16 3.623 2.299 9.266 1.532 13.028-.07.419-.418.767-.836.837-.07 0-.139.07-.278.07-.767.069-2.02.348-3.345.348Zm-6.898-5.504c.14 0 .279 0 .418.07.418.069.766.348 1.881 1.184.836.627 1.95 1.393 2.648 1.741 1.323.627 3.344.28 4.389.07.557-3.414.209-8.012-1.463-10.869-2.926-4.946-8.5-6.41-10.102-6.688-2.509-.488-6.62.21-8.36 1.324-.35.279-.489.418-.489.487 0 .488-.348.976-.836 1.046-5.225 1.184-7.176 4.25-6.41 10.38.419 3.066.837 4.041.976 4.32.836.488 2.02-.975 3.623-3.135.627-.836 1.184-1.672 1.881-2.439.348-.418 1.045-.487 1.463-.139 1.672 1.393 4.877 2.926 8.918 4.18.07-.487.14-.975.627-1.323.279-.14.557-.21.836-.21Z" fill="#263357"/><path d="M63.33 23.178c-.279 0-.557-.07-.766-.279-.14-.14-.279-.279-.488-.418-.766-.627-1.95-1.602-2.647-3.553-.21-.558.139-1.115.627-1.324.557-.209 1.114.14 1.323.627.488 1.394 1.255 2.02 1.951 2.648.279.209.488.418.627.557a1.01 1.01 0 0 1 0 1.463c-.07.21-.348.279-.627.279ZM52.531 20.53c-.348 0-.697-.208-.906-.487l-.278-.418c-.836-1.393-1.742-2.996-1.742-5.295 0-.557.488-1.045 1.045-1.045.557 0 1.045.488 1.045 1.045 0 1.672.697 2.926 1.463 4.18l.279.418c.279.488.14 1.115-.348 1.394-.21.209-.419.209-.558.209Z" fill="#263357"/><path d="M59.15 55.575v-.697c-.349-5.364-4.669-9.754-9.963-10.31-3.554-.35-6.759 1.81-9.058 4.11-2.23-2.3-5.504-4.46-8.987-4.18-5.156.487-9.336 4.528-10.033 9.684-.07.487-.07.905-.07 1.323 0 3.205 1.533 6.27 4.041 8.222L40.06 75.71l15.048-11.914c2.439-1.95 4.041-5.016 4.041-8.22Z" fill="#F86464"/><path d="M39.994 76.755c-.21 0-.488-.07-.627-.21l-14.98-11.983c-2.786-2.23-4.459-5.643-4.459-9.057 0-.488.07-.975.07-1.463.697-5.643 5.295-10.033 10.938-10.59 3.902-.348 7.176 1.95 9.127 3.762 1.951-1.811 5.295-4.04 9.127-3.692 5.852.557 10.52 5.434 10.938 11.286v.697c0 3.484-1.672 6.828-4.528 9.127L40.55 76.546a.79.79 0 0 1-.557.209Zm-8.221-31.213h-.628c-4.668.418-8.5 4.11-9.057 8.709-.07.418-.07.836-.07 1.254 0 2.787 1.324 5.574 3.693 7.455l14.283 11.426L54.415 63.03c2.37-1.882 3.763-4.668 3.693-7.455v-.627c-.348-4.807-4.25-8.849-9.057-9.336-3.553-.349-6.689 2.23-8.221 3.762-.21.21-.488.279-.767.279-.278 0-.557-.14-.766-.349-1.393-1.393-4.18-3.762-7.524-3.762Zm-4.948 28.286H6.62a1.072 1.072 0 0 1-1.045-1.045c0-.557.488-1.045 1.045-1.045h20.205c.557 0 1.045.488 1.045 1.045 0 .627-.488 1.045-1.045 1.045Zm4.178 5.574H15.675a1.072 1.072 0 0 1-1.045-1.045c0-.557.488-1.045 1.045-1.045h15.328c.557 0 1.045.488 1.045 1.045 0 .627-.488 1.045-1.045 1.045Zm42.498-5.574H53.297a1.072 1.072 0 0 1-1.045-1.045c0-.557.487-1.045 1.045-1.045H73.5c.558 0 1.045.488 1.045 1.045 0 .627-.487 1.045-1.045 1.045Zm-9.054 5.574H49.12a1.071 1.071 0 0 1-1.044-1.045c0-.557.487-1.045 1.044-1.045h15.328c.557 0 1.045.488 1.045 1.045 0 .627-.488 1.045-1.045 1.045Z" fill="#263357"/></svg>