<svg width="85" height="85" fill="none" xmlns="http://www.w3.org/2000/svg"><path d="m56.934 8.959.74 5.183s7.404 11.846 8.145 17.03c.74 5.182 3.701 14.067 2.96 17.77-.74 3.701-.74 14.807-1.48 17.77-1.184 4.59-19.989 3.701-19.989 3.701s20.73 2.962 22.95 0c4.442-5.923 2.962-16.289 2.962-16.289s6.663.74 5.922-2.962c-.74-3.702-5.922-5.923-5.922-13.327S71 22.286 68.04 17.103c-3.258-5.7-11.106-8.144-11.106-8.144Z" fill="#61C4F2"/><path d="M36.204 61.529s6.07 5.997 9.254 7.774c4.812 2.592 8.514 1.851 8.514 1.851s-.74 8.145-1.48 11.847c-4.443-1.481-8.885-5.183-12.587-8.885-4.294-4.294-3.701-12.587-3.701-12.587Z" fill="#61C4F2"/><path d="M54.342 72.635c-8.959 0-10.661-3.925-10.883-4.369-.223-.592.074-1.185.666-1.407a1.094 1.094 0 0 1 1.406.593c.075.074 1.481 2.961 8.81 2.961.593 0 1.111.519 1.111 1.11a1.09 1.09 0 0 1-1.11 1.112ZM23.692 83.89h-.148c-.593-.075-1.037-.667-.963-1.26l3.776-28.43c-.962-.889-1.85-1.926-2.74-3.11-.37-.519-.295-1.185.223-1.555.518-.37 1.184-.296 1.555.222.962 1.185 1.925 2.295 2.887 3.184.296.222.37.592.37.962l-3.85 29.025c-.074.518-.592.962-1.11.962Z" fill="#263357"/><path d="M53.009 83.741h-.148c-.592-.074-1.037-.592-.962-1.258l1.332-11.255c.074-.592.518-.962 1.11-.962h13.623a3.792 3.792 0 0 0 3.776-3.776V54.199c0-.519.37-.963.888-1.111l4.442-.963c.666-.222 1.036-.518 1.11-.74.074-.148 0-.37-.148-.592-2.887-4.443-6.292-10.588-6.292-14.66v-1.037c.074-.74.074-1.259.074-1.703 0-10.292-6.071-19.621-15.473-23.842-.593-.222-.815-.888-.593-1.48.222-.593.889-.815 1.48-.593a28.342 28.342 0 0 1 16.732 25.84c0 .52 0 1.111-.073 1.778v.962c0 2.74 2.146 7.553 5.996 13.476.518.814.666 1.777.37 2.591-.37.963-1.332 1.777-2.665 2.148l-3.627.74v11.402a5.972 5.972 0 0 1-5.997 5.998h-12.66L54.045 82.63c0 .74-.518 1.11-1.036 1.11Z" fill="#263357"/><path d="M29.542 22.434a1.17 1.17 0 0 1-1.184 1.185H21.99c-2.073 0 3.85-10.366-4.294-10.366-7.403 0-.74 9.626-3.924 10.366H8.517a1.17 1.17 0 0 1-1.185-1.184V2.665a1.17 1.17 0 0 1 1.185-1.184h19.767a1.17 1.17 0 0 1 1.184 1.184v6.812c0 2.296 11.18-5.775 10.365 3.776-.74 8.885-10.365 0-10.365 3.036v6.145h.074Z" fill="#61C4F2"/><path d="M28.801 23.62v7.552c0 2.073-10.364-3.85-10.364 4.294 0 7.404 9.624.74 10.364 3.924v6.442H8.146c-.888 0-1.555-.74-1.555-1.555V23.619h8.07c2.37 0-5.775-11.18 3.776-10.365 8.884.74 0 10.365 3.035 10.365h7.33Z" fill="#F86464"/><path d="M29.17 47.313H8.587a2.733 2.733 0 0 1-2.74-2.74V2.74A2.733 2.733 0 0 1 8.589 0h41.829a2.733 2.733 0 0 1 2.74 2.74v21.25c0 .592-.52 1.11-1.111 1.11-.593 0-1.11-.518-1.11-1.11V2.665a.506.506 0 0 0-.52-.519H8.589a.506.506 0 0 0-.518.519v41.833c0 .296.222.518.518.518H29.17c.593 0 1.11.519 1.11 1.11 0 .593-.517 1.186-1.11 1.186Z" fill="#263357"/><path d="M29.17 47.313c-.592 0-1.11-.519-1.11-1.111v-5.775c0-.222-.074-.815-.444-1.11-.222-.223-.666-.149-1.037-.075l-.814.444c-1.259.963-2.887 1.333-4.442.963-2.147-.444-3.85-2.147-4.294-4.22a5.483 5.483 0 0 1 1.11-4.665c1.037-1.333 2.666-2.073 4.295-2.073 1.258 0 2.443.444 3.405 1.184l.74.37c.37.075.74.075 1.037-.073.37-.297.444-.889.444-1.111V18.214c0-.222 0-1.85 1.259-2.813.518-.445 1.554-.889 3.035-.445.074 0 .148.074.296.074l.963.519c.074 0 .074.074.148.074.74.592 1.703.814 2.665.666 1.407-.222 2.517-1.407 2.74-2.888.147-.962-.149-1.925-.815-2.591a3.315 3.315 0 0 0-2.517-1.11c-.74 0-1.407.222-2 .666-.073 0-.073.074-.147.074l-.963.592c-.074.074-.148.074-.296.074-1.555.37-2.517-.074-3.035-.444-1.259-.963-1.259-2.666-1.259-2.814v-5.33c0-.593.518-1.111 1.11-1.111.593 0 1.111.518 1.111 1.11v5.331c0 .222.074.815.444 1.111.223.222.667.148 1.037.074l.814-.444c.963-.74 2.073-1.11 3.332-1.11 1.554 0 3.11.666 4.146 1.85 1.036 1.185 1.554 2.814 1.332 4.369a5.582 5.582 0 0 1-4.516 4.812 5.438 5.438 0 0 1-4.368-1.036l-.74-.37c-.37-.075-.74-.075-1.037.074-.37.296-.444.888-.444 1.11v11.847c0 .222 0 1.85-1.258 2.814-.519.444-1.555.888-3.036.444-.074 0-.148-.074-.296-.074l-.962-.519c-.074 0-.074-.074-.148-.074-.593-.444-1.333-.74-2.073-.74-1.037 0-1.925.444-2.592 1.259-.666.814-.888 1.777-.666 2.813.296 1.259 1.259 2.295 2.517 2.518.963.222 2 0 2.74-.593.073 0 .074-.074.148-.074l.962-.592c.074-.074.148-.074.296-.074 1.555-.37 2.517.074 3.036.444 1.258.963 1.258 2.666 1.258 2.814v5.775c0 .592-.518 1.036-1.11 1.036Z" fill="#263357"/><path d="M40.276 36.207c-.222 0-.444 0-.666-.075a5.582 5.582 0 0 1-4.812-4.516 5.44 5.44 0 0 1 1.036-4.369l.37-.74c.074-.37.074-.74-.074-1.037-.296-.37-.888-.444-1.11-.444H23.174c-.222 0-1.85 0-2.813-1.258-.444-.519-.888-1.555-.444-3.036 0-.074.074-.148.074-.296l.518-.963c0-.074.074-.074.074-.148.444-.592.74-1.333.74-2.073 0-1.037-.444-1.925-1.258-2.592-.814-.666-1.777-.888-2.813-.666-1.259.296-2.295 1.259-2.517 2.518-.223.962 0 1.999.592 2.739 0 .074.074.074.074.148l.592.963c.074.074.074.148.074.296.37 1.555-.074 2.517-.444 3.035-.962 1.26-2.665 1.26-2.813 1.26H7.627c-.592 0-1.11-.52-1.11-1.111 0-.593.518-1.111 1.11-1.111h5.183c.222 0 .814-.074 1.11-.444.222-.222.148-.667.074-1.037l-.444-.814a5.301 5.301 0 0 1-.962-4.443c.444-2.147 2.147-3.85 4.22-4.294a5.482 5.482 0 0 1 4.664 1.11c1.332 1.037 2.073 2.666 2.073 4.295 0 1.184-.445 2.443-1.185 3.406l-.37.74c-.074.37-.074.74.074 1.037.296.37.888.444 1.11.444H35.02c.222 0 1.85 0 2.813 1.259.444.518.888 1.555.444 3.035 0 .074-.074.149-.074.297l-.518.962c0 .074-.074.074-.074.148-.592.74-.814 1.703-.666 2.666.222 1.407 1.406 2.517 2.887 2.74.962.147 1.925-.149 2.591-.815a3.316 3.316 0 0 0 1.11-2.518 3.25 3.25 0 0 0-.666-1.999c0-.074-.074-.074-.074-.148l-.592-.962c-.074-.074-.074-.149-.074-.297-.37-1.554.074-2.517.444-3.035.963-1.259 2.665-1.259 2.814-1.259h6.663c.592 0 1.11.518 1.11 1.11 0 .593-.518 1.111-1.11 1.111h-6.663c-.223 0-.815.074-1.111.445-.222.222-.148.666-.074 1.036l.444.815c.74.962 1.11 2.073 1.11 3.331 0 1.555-.666 3.11-1.85 4.147-.963.962-2.295 1.407-3.628 1.407Z" fill="#263357"/><path d="M48.42 47.313h-2.962c-.593 0-1.11-.518-1.11-1.11 0-.593.517-1.111 1.11-1.111h2.961c.592 0 1.11.518 1.11 1.11 0 .593-.518 1.11-1.11 1.11Zm-8.145 0h-2.961c-.592 0-1.11-.518-1.11-1.11 0-.593.518-1.111 1.11-1.111h2.961c.593 0 1.11.518 1.11 1.11 0 .593-.517 1.11-1.11 1.11Zm-8.143 0H29.17c-.592 0-1.11-.518-1.11-1.11 0-.593.518-1.111 1.11-1.111h2.962c.592 0 1.11.518 1.11 1.11 0 .593-.518 1.11-1.11 1.11Zm19.989-2.444c-.593 0-1.11-.518-1.11-1.11v-2.962c0-.592.517-1.11 1.11-1.11.592 0 1.11.518 1.11 1.11v2.962c0 .592-.518 1.11-1.11 1.11Zm0-8.144c-.593 0-1.11-.518-1.11-1.11v-2.962c0-.593.517-1.111 1.11-1.111.592 0 1.11.518 1.11 1.11v2.962c0 .593-.518 1.111-1.11 1.111Zm0-8.145c-.593 0-1.11-.518-1.11-1.11v-2.962c0-.592.517-1.11 1.11-1.11.592 0 1.11.518 1.11 1.11v2.962c0 .592-.518 1.11-1.11 1.11ZM70.63 84.333H35.096c-.593 0-1.11-.518-1.11-1.11 0-.593.517-1.111 1.11-1.111H70.63c.592 0 1.11.518 1.11 1.11 0 .667-.518 1.111-1.11 1.111Zm-43.68 0H9.922c-.592 0-1.11-.518-1.11-1.11 0-.593.518-1.11 1.11-1.11H26.95c.592 0 1.11.517 1.11 1.11 0 .666-.518 1.11-1.11 1.11ZM5.185 85a1.185 1.185 0 1 0 0-2.37 1.185 1.185 0 0 0 0 2.37Z" fill="#263357"/></svg>