<svg width="62" height="62" fill="none" xmlns="http://www.w3.org/2000/svg"><rect x="1.841" y="1.063" width="46.972" height="46.615" rx="6.5" transform="rotate(-14.881 54.272 6.437) skewX(.238)" fill="#FF7678"/><rect x="1.841" y="1.063" width="46.972" height="46.615" rx="6.5" transform="rotate(-14.881 54.272 6.437) skewX(.238)" stroke="#1C2947" stroke-width="3"/><path d="M20.019 42.77c-.371.099-.696.094-.973-.014a1.085 1.085 0 0 1-.576-.568c-.126-.28-.16-.62-.1-1.016l2.46-15.181c.08-.501.235-.882.463-1.141.24-.279.545-.468.916-.566.356-.095.7-.079 1.032.048.344.107.677.358 1 .753l9.808 11.92c.266.31.416.618.448.924a1.09 1.09 0 0 1-.206.8c-.175.212-.44.365-.796.46-.433.115-.8.105-1.102-.03-.29-.155-.586-.424-.889-.807l-2.453-3.098 1.472.478-9.788 2.602 1.033-1.144-.54 3.893c-.08.501-.2.881-.363 1.14-.162.258-.444.44-.846.547Zm3.064-15.068L21.92 36.28l-.803-.581 7.747-2.059-.38.896-5.355-6.846-.046.012Zm17.665 9.61c-.82.217-1.596.258-2.329.122a4.159 4.159 0 0 1-1.858-.897 3.386 3.386 0 0 1-1.028-1.689c-.225-.834-.186-1.548.117-2.142.3-.61.907-1.152 1.823-1.627.916-.475 2.193-.93 3.832-1.366l1.16-.308.45 1.668-1.136.302c-.958.255-1.711.505-2.258.75-.547.244-.913.515-1.098.813-.174.278-.206.617-.098 1.02.138.509.428.879.872 1.108.443.23.982.261 1.616.092.51-.135.927-.37 1.251-.705.335-.354.563-.77.682-1.248.12-.48.106-.989-.04-1.53l-.72-2.664c-.209-.772-.53-1.283-.961-1.532-.432-.25-1.05-.268-1.854-.054a7.497 7.497 0 0 0-1.418.55 8.026 8.026 0 0 0-1.473.988c-.257.217-.509.325-.758.325a.923.923 0 0 1-.61-.235 1.263 1.263 0 0 1-.36-.6 1.38 1.38 0 0 1 .003-.72c.061-.265.224-.49.489-.677a10.859 10.859 0 0 1 1.872-1.168c.631-.3 1.218-.522 1.759-.666 1.113-.296 2.072-.368 2.875-.217.818.146 1.5.52 2.043 1.12.54.586.955 1.419 1.247 2.5l1.502 5.56c.13.48.114.881-.047 1.205-.165.31-.464.521-.897.636-.433.115-.807.082-1.121-.1-.303-.2-.52-.54-.648-1.02l-.301-1.111.185-.05a3.312 3.312 0 0 1-.267 1.586 3.233 3.233 0 0 1-.939 1.218c-.42.344-.94.598-1.56.762Z" fill="#1C2947"/></svg>