<svg width="62" height="62" fill="none" xmlns="http://www.w3.org/2000/svg"><rect x="1.058" y="1.833" width="46.972" height="46.615" rx="6.5" transform="rotate(14.881 4.836 53.25) skewX(-.238)" fill="#FF7678"/><rect x="1.058" y="1.833" width="46.972" height="46.615" rx="6.5" transform="rotate(14.881 4.836 53.25) skewX(-.238)" stroke="#1C2947" stroke-width="3"/><path d="M21.732 37.33c-.48-.127-.815-.357-1.007-.69-.172-.343-.194-.755-.064-1.234l3.637-13.46c.133-.495.367-.839.7-1.032.334-.192.749-.223 1.244-.091l8.187 2.175c.418.111.706.304.864.578.162.258.189.588.08.99-.104.386-.296.666-.575.84-.275.159-.62.183-1.038.072l-6.75-1.794-3.38 12.511c-.13.48-.356.825-.678 1.037-.319.197-.725.23-1.22.098Zm10.937 2.906c-.464-.123-.792-.35-.984-.683-.176-.329-.2-.732-.07-1.211l2.265-8.387c.142-.525.39-.89.743-1.094.354-.204.794-.236 1.32-.097l5.914 1.572c.418.111.702.286.853.525.15.238.174.55.07.937-.1.37-.278.63-.534.777-.25.132-.585.143-1.002.032l-4.64-1.233-2.09 7.738c-.272 1.005-.887 1.38-1.845 1.124Z" fill="#1C2947"/></svg>