<svg width="62" height="62" fill="none" xmlns="http://www.w3.org/2000/svg"><rect x="1.841" y="1.063" width="46.972" height="46.615" rx="6.5" transform="rotate(-14.881 54.272 6.437) skewX(.238)" fill="#AEA1C9"/><rect x="1.841" y="1.063" width="46.972" height="46.615" rx="6.5" transform="rotate(-14.881 54.272 6.437) skewX(.238)" stroke="#263357" stroke-width="3"/><path d="M22.422 41.933c-.51.135-.94.109-1.29-.08-.337-.208-.575-.567-.713-1.077l-3.562-13.183c-.138-.51-.11-.93.081-1.263.204-.352.56-.596 1.07-.731l5.568-1.48c1.144-.304 2.164-.393 3.06-.267.896.126 1.638.45 2.227.973.604.518 1.025 1.218 1.262 2.098.268.989.207 1.899-.182 2.73-.388.832-1.046 1.495-1.973 1.99l-.094-.348c1.19-.134 2.196.062 3.018.589.822.527 1.383 1.346 1.684 2.458.392 1.452.202 2.711-.571 3.777-.761 1.047-2.016 1.802-3.763 2.267l-5.822 1.547Zm.668-2.587 4.175-1.11c1.052-.278 1.771-.685 2.157-1.218.382-.548.463-1.232.242-2.05-.226-.835-.64-1.387-1.243-1.657-.604-.27-1.431-.265-2.483.014l-4.175 1.11 1.327 4.911Zm-1.934-7.159 3.78-1.005c1.021-.27 1.727-.665 2.117-1.183.402-.537.499-1.192.29-1.964-.209-.772-.62-1.284-1.235-1.534-.603-.27-1.415-.27-2.436.001l-3.78 1.005 1.264 4.68Zm16.957 5.576c-.464.123-.853.094-1.167-.087-.314-.181-.534-.504-.66-.967l-2.284-8.457c-.126-.463-.098-.851.083-1.164.18-.313.503-.531.967-.655l4.685-1.245c.974-.258 1.794-.352 2.46-.28.681.066 1.221.287 1.62.661.396.359.679.855.85 1.488.192.71.107 1.379-.254 2.004-.35.607-.912 1.07-1.687 1.392l-.088-.324c1.022-.205 1.857-.12 2.505.253.663.37 1.104.957 1.32 1.76.264.973.101 1.844-.487 2.613-.588.768-1.585 1.34-2.992 1.714l-4.871 1.294Zm.77-2.117 3.364-.893c.634-.169 1.078-.428 1.331-.776.27-.353.335-.785.198-1.294-.138-.51-.413-.851-.824-1.023-.395-.177-.91-.18-1.544-.012l-3.364.894.84 3.104Zm-1.32-4.888 3.154-.839c.557-.148.956-.386 1.199-.716.238-.344.295-.748.17-1.212-.126-.463-.374-.77-.746-.92-.376-.164-.843-.173-1.4-.025l-3.154.839.776 2.873Z" fill="#263357"/></svg>