<svg width="62" height="61" fill="none" xmlns="http://www.w3.org/2000/svg"><rect x="1.058" y="1.833" width="46.972" height="46.615" rx="6.5" transform="rotate(14.881 7.187 52.944) skewX(-.238)" fill="#61C4F2"/><rect x="1.058" y="1.833" width="46.972" height="46.615" rx="6.5" transform="rotate(14.881 7.187 52.944) skewX(-.238)" stroke="#263357" stroke-width="3"/><path d="M18.08 35.548c-.51-.136-.868-.372-1.076-.709-.188-.347-.213-.776-.075-1.286l3.562-13.183c.138-.51.373-.861.707-1.054.354-.204.786-.238 1.296-.102l8.768 2.33c.386.102.653.28.8.535.162.258.193.573.093.943-.105.387-.294.659-.57.818-.254.147-.575.17-.962.067l-7.492-1.991-1.202 4.448 4.547 1.208c1.747.465 3 1.228 3.756 2.29.773 1.066.948 2.38.527 3.94-.417 1.544-1.231 2.594-2.442 3.15-1.196.56-2.667.607-4.414.143l-5.822-1.547Zm1.915-2.025 4.175 1.11c1.051.28 1.877.292 2.476.037.603-.27 1.016-.814 1.237-1.633.221-.819.136-1.487-.254-2.004-.39-.518-1.112-.917-2.163-1.196l-4.175-1.11-1.296 4.796Zm17.225 7.36c-1.206-.321-2.19-.848-2.954-1.58-.748-.73-1.23-1.644-1.447-2.744-.212-1.116-.124-2.392.264-3.829l.457-1.691c.413-1.53.982-2.744 1.706-3.644.743-.912 1.647-1.557 2.71-1.937 1.084-.39 2.335-.572 3.752-.543l3.216.06c.431-.001.765.112 1.002.34.24.214.347.524.32.93-.027.407-.178.723-.455.947-.271.21-.629.305-1.071.287l-3.454-.099c-.823-.02-1.552.101-2.186.363a3.97 3.97 0 0 0-1.601 1.14c-.421.516-.736 1.161-.945 1.933l-.338 1.252-.395-.105a5.244 5.244 0 0 1 1.271-1.575 4.132 4.132 0 0 1 1.816-.833c.687-.149 1.432-.116 2.236.097.944.25 1.716.704 2.318 1.361.62.645 1.027 1.44 1.22 2.385.192.945.131 1.997-.182 3.156-.321 1.189-.84 2.16-1.557 2.913a5.158 5.158 0 0 1-2.517 1.492c-.98.253-2.042.227-3.186-.077Zm.479-2.233c.618.165 1.172.17 1.66.02.508-.164.942-.479 1.3-.947.374-.463.663-1.073.867-1.83.305-1.128.284-2.06-.064-2.799-.328-.749-.948-1.245-1.86-1.487-.603-.16-1.159-.16-1.667.004-.504.147-.94.445-1.31.893-.355.453-.628 1.034-.82 1.744-.32 1.19-.318 2.159.01 2.908.344.754.971 1.252 1.884 1.494Z" fill="#263357"/></svg>