<svg width="62" height="62" fill="none" xmlns="http://www.w3.org/2000/svg"><rect x="1.841" y="1.063" width="46.972" height="46.615" rx="6.5" transform="rotate(-14.881 54.272 6.437) skewX(.238)" fill="#61C4F2"/><rect x="1.841" y="1.063" width="46.972" height="46.615" rx="6.5" transform="rotate(-14.881 54.272 6.437) skewX(.238)" stroke="#1C2947" stroke-width="3"/><path d="M19.931 46.89c-.433.116-.797.088-1.091-.082-.28-.174-.477-.477-.594-.91l-.99-3.66c-.245-.912.096-1.49 1.023-1.737l1.578-.42-1.638.932c.643-1.114.949-2.561.915-4.34-.017-1.784-.373-3.957-1.065-6.521l-.726-2.688c-.138-.51-.111-.93.08-1.263.204-.352.56-.596 1.071-.731l8.42-2.238c.51-.136.934-.1 1.272.109.35.189.593.538.73 1.047l3.65 13.508-1.414-.816 2.042-.542c.448-.12.82-.094 1.114.076.31.166.526.473.647.92l.989 3.661c.242.896-.07 1.46-.936 1.69-.433.114-.797.087-1.091-.083-.295-.17-.5-.471-.617-.904l-.72-2.664-12.41 3.297.72 2.665c.242.896-.077 1.46-.959 1.695Zm1.596-7.252 7.747-2.059-3.137-11.608-5.822 1.547.589 2.178c.6 2.225.946 4.144 1.034 5.76.104 1.611-.033 3.005-.411 4.182ZM38.45 41.1c-.387.102-.728.069-1.022-.101-.275-.16-.469-.447-.581-.864l-.764-2.827c-.242-.895.085-1.463.982-1.7l1.299-.346-1.554 1.058a7.572 7.572 0 0 0 .494-1.944 9.222 9.222 0 0 0-.034-2.151c-.1-.801-.293-1.727-.576-2.777l-.432-1.599c-.142-.525-.111-.963.092-1.316.203-.351.568-.597 1.093-.737l5.59-1.486c.526-.14.966-.107 1.32.097.352.204.6.569.742 1.094l2.373 8.781-1.709-.986 1.856-.493c.433-.116.797-.088 1.091.082.29.155.496.456.617.904l.764 2.827c.234.864-.06 1.406-.879 1.624-.402.106-.743.073-1.022-.101-.259-.163-.445-.453-.558-.87l-.513-1.9-8.327 2.213.513 1.9c.234.865-.051 1.404-.855 1.618Zm1.19-6.177 4.755-1.264-1.847-6.835-3.642.968.451 1.668c.263.973.417 1.942.462 2.907.061.96.001 1.813-.18 2.556Z" fill="#1C2947"/></svg>