<svg width="62" height="62" fill="none" xmlns="http://www.w3.org/2000/svg"><rect x="1.058" y="1.833" width="46.972" height="46.615" rx="6.5" transform="rotate(14.881 4.836 53.25) skewX(-.238)" fill="#AEA1C9"/><rect x="1.058" y="1.833" width="46.972" height="46.615" rx="6.5" transform="rotate(14.881 4.836 53.25) skewX(-.238)" stroke="#263357" stroke-width="3"/><path d="M18.877 36.373c-.51-.136-.869-.372-1.076-.709-.188-.347-.213-.776-.075-1.286l3.562-13.183c.137-.51.373-.861.707-1.054.353-.204.785-.238 1.296-.103l8.28 2.2c.387.104.653.282.8.536.162.259.193.573.093.944-.104.386-.294.658-.569.817-.255.148-.576.17-.962.067l-7.005-1.861-1.215 4.494 6.495 1.726c.402.107.676.288.823.542.147.254.168.574.064.96-.105.387-.284.653-.54.8-.255.148-.584.168-.986.062l-6.494-1.726-1.284 4.75 7.005 1.86c.387.104.654.282.8.536.163.259.192.58.087.967-.104.386-.292.65-.562.794-.256.148-.576.17-.963.067l-8.28-2.2Zm17.674 4.945c-1.283-.341-2.324-.875-3.122-1.6a5.333 5.333 0 0 1-1.607-2.612c-.257-1.012-.222-2.12.103-3.325.317-1.174.835-2.137 1.552-2.89a5.616 5.616 0 0 1 2.575-1.526c1.004-.28 2.054-.274 3.152.018.804.213 1.488.536 2.05.967a4.55 4.55 0 0 1 1.341 1.573c.33.617.516 1.312.556 2.084.06.761-.03 1.582-.268 2.462-.075.278-.234.468-.477.569-.223.09-.512.087-.868-.007l-7.445-1.979.45-1.668 6.518 1.732-.465.249c.192-.71.245-1.334.157-1.87-.071-.533-.275-.976-.61-1.33-.316-.365-.767-.626-1.355-.782-.65-.173-1.248-.166-1.795.02-.528.174-.99.506-1.388.997-.378.479-.67 1.096-.874 1.853l-.044.163c-.342 1.266-.305 2.294.112 3.084.436.778 1.234 1.32 2.394 1.629.401.107.863.18 1.382.218a5.388 5.388 0 0 0 1.582-.15c.375-.1.682-.1.921-.004.243.081.414.218.511.409.113.196.154.413.122.653a1.126 1.126 0 0 1-.32.635c-.171.203-.419.352-.743.448a6.467 6.467 0 0 1-2.086.266 9.338 9.338 0 0 1-2.01-.286Z" fill="#263357"/></svg>